<svg width="72" height="72" viewBox="0 0 72 72" fill="none" xmlns="http://www.w3.org/2000/svg">
<path fill-rule="evenodd" clip-rule="evenodd" d="M46.6667 21H23.3333C21.5 21 20 22.5 20 24.3333V47.6667C20 49.5 21.5 51 23.3333 51H46.6667C48.5 51 50 49.5 50 47.6667V24.3333C50 22.5 48.5 21 46.6667 21ZM23 24H29.0043C29.0043 26.7667 25.7667 30 23 30V24ZM23 36V33C27.6 33 32 28.6 32 24H35C35 30.45 29.45 36 23 36ZM23 46L29.1667 38.5L33 43L39 36L47 46H23Z" fill="white"/>
<circle cx="36" cy="36" r="35" stroke="white" stroke-width="2"/>
</svg>
