<svg width="108" height="108" viewBox="0 0 108 108" fill="none" xmlns="http://www.w3.org/2000/svg">
<rect x="2" y="2" width="104" height="104" rx="52" fill="#DEE5F2" stroke="white" stroke-width="4"/>
<mask id="mask0" mask-type="alpha" maskUnits="userSpaceOnUse" x="0" y="0" width="108" height="108">
<rect x="2" y="2" width="104" height="104" rx="52" fill="white" stroke="white" stroke-width="4"/>
</mask>
<g mask="url(#mask0)">
<path fill-rule="evenodd" clip-rule="evenodd" d="M70.5803 34.1478C71.0178 33.92 71.5463 33.9583 71.9488 34.2417C72.3513 34.527 72.5578 35.0104 72.4861 35.4974L67.6736 67.6713C67.6158 68.0522 67.3901 68.3913 67.0576 68.593C66.8493 68.7183 66.6131 68.7826 66.3751 68.7826C66.2316 68.7826 66.0881 68.7583 65.9516 68.713L47.6063 62.4817L65.6453 40.8835L42.3336 60.6922L31.3873 56.9739C30.8921 56.8052 30.5438 56.36 30.5036 55.8383C30.4651 55.3183 30.7398 54.8244 31.2053 54.5826L70.5803 34.1478ZM45.8125 72.6957V64.6296L52.9298 67.047L48.182 73.4678C47.93 73.8087 47.5345 74 47.125 74C46.9885 74 46.8503 73.9791 46.7155 73.9357C46.1765 73.7583 45.8125 73.2591 45.8125 72.6957Z" fill="white"/>
</g>
</svg>
