<svg width="40" height="40" viewBox="0 0 40 40" fill="none" xmlns="http://www.w3.org/2000/svg">
<path fill-rule="evenodd" clip-rule="evenodd" d="M39.6293 3.84617C39.3909 3.574 39.0415 3.41797 38.6705 3.41797H34.3512C32.8012 3.41797 31.4809 4.47923 31.2117 5.94134L30.6132 9.19246L29.1452 17.1674L26.8163 4.5156C26.6702 3.72233 26.2104 3.03101 25.5216 2.56899C24.8328 2.10696 23.9972 1.92943 23.1693 2.06954L9.96333 4.29997C7.03733 4.79419 5.07655 7.47649 5.59249 10.2793L6.1978 13.5675C6.25394 13.8722 6.55717 14.0758 6.87522 14.0218C7.19335 13.9681 7.40567 13.6776 7.34961 13.3729L7.01628 11.562V11.5619C6.97402 11.3325 6.98064 10.944 7.13838 10.604C7.29635 10.2635 7.55889 10.0666 7.94103 10.0021C9.65051 9.71334 10.7962 8.14615 10.4947 6.5086C10.4273 6.14262 10.5307 5.83894 10.8107 5.58029C11.0903 5.32209 11.4691 5.18324 11.7087 5.14276L11.7092 5.14269L23.3723 3.17285C24.4469 2.99128 25.475 3.68103 25.6645 4.71024L28.1044 17.9652H26.6911C24.8347 17.9652 23.2534 19.2362 22.9311 20.9873C22.8635 21.3546 22.8565 21.724 22.9044 22.0848L8.50571 19.6529L7.83187 15.9925C7.77581 15.6879 7.47257 15.4842 7.15444 15.5382C6.83639 15.5919 6.624 15.8824 6.68006 16.1871L7.2799 19.4459L4.01168 18.8939C3.24131 18.7632 2.50446 19.258 2.36864 19.9958L0.0218905 32.7438C-0.0438405 33.1012 0.0395903 33.4616 0.2569 33.759C0.432105 33.9986 0.678109 34.1725 0.962085 34.2644L0.965438 34.2658L0.968791 34.2671L0.976837 34.2694L0.976932 34.2695L0.984308 34.2715C1.00926 34.2792 1.03421 34.2867 1.05971 34.2931C1.09768 34.3028 1.13487 34.3112 1.17144 34.3175L1.17339 34.3177L22.7184 37.9567C22.8014 37.9708 22.884 37.9775 22.9654 37.9775C23.6403 37.9774 24.2402 37.513 24.3615 36.8548L24.5714 35.7143C25.8765 36.7753 27.5647 37.4164 29.4065 37.4164C30.8713 37.4164 32.2901 37.0108 33.5096 36.2436C33.7796 36.0739 33.8546 35.7265 33.6773 35.4679C33.5001 35.2093 33.1374 35.1373 32.8675 35.3073C31.8394 35.9541 30.6426 36.2961 29.4065 36.2961C25.9254 36.2961 23.0933 33.5833 23.0933 30.2487C23.0933 29.5926 23.2015 28.9551 23.4065 28.3545C23.4183 28.328 23.428 28.3008 23.4354 28.273C23.8799 27.0311 24.7417 25.9529 25.924 25.2042C26.1741 25.2532 26.4307 25.2795 26.6911 25.2795H28.4157C29.3701 25.2795 30.2513 24.9429 30.9265 24.3785C33.7213 25.0395 35.7198 27.4634 35.7198 30.2487C35.7198 31.4498 35.3532 32.6101 34.6597 33.6042C34.4803 33.8614 34.5524 34.2093 34.821 34.3811C34.9208 34.445 35.0337 34.4757 35.1454 34.4757C35.3341 34.4757 35.5194 34.3883 35.6322 34.2267C36.4547 33.0477 36.8894 31.6721 36.8894 30.2487C36.8894 27.1249 34.7674 24.3853 31.7321 23.4358C31.9445 23.0787 32.0974 22.6824 32.1757 22.2574L34.4597 9.84995H35.473C37.504 9.84995 39.2341 8.45939 39.5868 6.5434L39.9031 4.82489C39.9675 4.47505 39.8677 4.11841 39.6293 3.84617ZM9.3429 6.70324C9.53238 7.73237 8.81238 8.71737 7.73799 8.89886C7.33199 8.96743 6.97464 9.12644 6.68123 9.36201C6.68957 7.68495 7.79359 6.17466 9.43593 5.59351C9.30509 5.93827 9.27133 6.31426 9.3429 6.70324ZM9.01924 29.1442L2.63398 33.4268L14.7129 35.4669L11.379 30.9062L11.3787 30.9059L11.3784 30.9055L10.2419 29.3507C9.96419 28.9709 9.41581 28.8783 9.01924 29.1442ZM23.5661 34.7239L23.2096 36.6602C23.1859 36.7896 23.0564 36.8756 22.9216 36.8535L16.3418 35.7421L12.6723 30.7222L18.8865 26.5542C19.2652 26.3002 19.7246 26.2027 20.1799 26.2795C20.6352 26.3564 21.032 26.5985 21.2973 26.9614L22.2228 28.2275C22.0268 28.8732 21.9237 29.552 21.9237 30.2487C21.9237 31.9404 22.5391 33.4966 23.5661 34.7239ZM22.2553 26.3188L22.7392 26.9808C23.2009 26.1155 23.8478 25.3436 24.6513 24.7133C24.3223 24.5139 24.0229 24.2661 23.7663 23.9732C23.5797 23.7601 23.4214 23.53 23.2918 23.2877L7.90002 20.688L7.89526 20.6872L3.80848 19.9969C3.6732 19.9745 3.54423 20.0609 3.52045 20.1902L1.17378 32.9383C1.16692 32.9755 1.17004 33.0083 1.17729 33.0362L8.34844 28.2264C9.27327 27.6062 10.5524 27.8222 11.1999 28.708L12.0014 29.8044L18.2156 25.6365C18.8502 25.2109 19.6198 25.0474 20.383 25.1762C21.1459 25.3052 21.8109 25.7109 22.2553 26.3188ZM31.0238 22.0628C30.9315 22.5642 30.6902 23.0086 30.3483 23.3579C30.3321 23.3724 30.3166 23.3876 30.3022 23.4039C29.8188 23.8736 29.1482 24.1593 28.4157 24.1593H26.691C25.9061 24.1593 25.1667 23.829 24.6622 23.2531C24.1577 22.6772 23.9465 21.9223 24.0828 21.1819C24.3064 19.9671 25.4033 19.0856 26.691 19.0856H28.7988L28.8005 19.0857L28.8023 19.0856H29.489C29.7728 19.0856 30.0157 18.8904 30.0649 18.6227L31.6797 9.8501H33.2719L31.0238 22.0628ZM35.4729 8.72962C36.9353 8.72962 38.181 7.72841 38.4348 6.34884L38.7511 4.63025C38.7555 4.60642 38.7495 4.58484 38.7332 4.56624C38.7169 4.54764 38.6958 4.53823 38.6705 4.53823H34.3511C33.3698 4.53823 32.5339 5.21021 32.3635 6.1359L31.886 8.72962H35.4729ZM20.7822 9.31891C20.7479 9.32474 20.7137 9.3275 20.68 9.3275C20.4015 9.3275 20.1548 9.1363 20.1047 8.86458L19.9848 8.21315C19.9286 7.90849 20.141 7.61795 20.4591 7.56425C20.7773 7.51047 21.0804 7.71392 21.1366 8.01858L21.2565 8.67002C21.3127 8.97467 21.1003 9.26521 20.7822 9.31891ZM12.8264 18.1632C12.7704 17.8585 12.9827 17.5679 13.3008 17.5142L22.5437 15.9531C22.8619 15.899 23.1651 16.1028 23.2212 16.4075C23.2773 16.7121 23.0649 17.0027 22.7468 17.0564L13.5038 18.6175C13.4695 18.6233 13.4353 18.6261 13.4016 18.6261C13.1232 18.6261 12.8765 18.435 12.8264 18.1632ZM12.9431 9.40249C12.887 9.09783 12.5841 8.89401 12.2656 8.94808C11.9476 9.00178 11.7352 9.29225 11.7912 9.59698L11.9112 10.2484C11.9612 10.5203 12.2079 10.7114 12.4865 10.7114C12.5201 10.7114 12.5544 10.7086 12.5887 10.7028C12.9067 10.6491 13.1191 10.3587 13.0631 10.0539L12.9431 9.40249ZM8.26228 21.5513C7.49986 21.4225 6.73027 21.5859 6.09589 22.0113C5.46158 22.4368 5.03811 23.0735 4.90368 23.804C4.76918 24.5345 4.93979 25.2715 5.384 25.8791C5.82821 26.4868 6.49285 26.8923 7.2555 27.0211C7.42509 27.0498 7.59374 27.0636 7.76037 27.0636C9.1401 27.0636 10.3665 26.114 10.6142 24.7685C10.8917 23.2605 9.83663 21.8171 8.26228 21.5513ZM9.4622 24.574C9.29659 25.4737 8.39741 26.0762 7.45846 25.9179C7.00349 25.841 6.607 25.5991 6.34197 25.2365C6.07702 24.8741 5.97518 24.4344 6.0555 23.9986C6.13573 23.5627 6.38836 23.1829 6.76676 22.9291C7.0608 22.7318 7.40349 22.6291 7.75522 22.6291C7.85612 22.6291 7.9578 22.6375 8.05924 22.6547C8.99842 22.8132 9.62782 23.6742 9.4622 24.574ZM28.7244 26.7661C28.163 26.497 27.509 26.5253 26.9749 26.8414C26.4408 27.1575 26.122 27.7053 26.122 28.3066V32.1908C26.122 32.7921 26.4408 33.3399 26.9748 33.656C27.2654 33.828 27.5916 33.9148 27.919 33.9148C28.1933 33.9148 28.4684 33.854 28.7243 33.7314L32.7792 31.7893C33.3923 31.4957 33.7732 30.9054 33.7732 30.2488C33.7732 29.5921 33.3924 29.0018 32.7792 28.7081L28.7244 26.7661ZM32.2564 30.7872L28.2014 32.7294C28.0023 32.8247 27.7792 32.815 27.5898 32.7029C27.4004 32.5907 27.2918 32.4041 27.2918 32.1908V28.3066C27.2918 28.0933 27.4004 27.9066 27.5898 27.7945C27.6928 27.7336 27.8056 27.7029 27.919 27.7029C28.0145 27.7029 28.1104 27.7245 28.2014 27.7681L32.2563 29.7101C32.4738 29.8144 32.6038 30.0157 32.6038 30.2487C32.6038 30.4817 32.4739 30.683 32.2564 30.7872ZM12.3473 15.5606C12.3973 15.8324 12.644 16.0235 12.9225 16.0235C12.9562 16.0235 12.9904 16.0207 13.0247 16.0149L22.2677 14.4538C22.5857 14.4001 22.7981 14.1095 22.742 13.8049C22.686 13.5002 22.3829 13.2968 22.0646 13.3505L12.8216 14.9117C12.5036 14.9653 12.2912 15.2559 12.3473 15.5606ZM16.7776 10.511C16.6599 10.531 16.5415 10.5407 16.4238 10.5407C15.9609 10.5407 15.5077 10.3896 15.1416 10.1063C14.8903 9.91187 14.8511 9.55919 15.0541 9.31846C15.2571 9.07789 15.6252 9.04032 15.8765 9.23466C16.0726 9.38643 16.3271 9.4491 16.5744 9.40772C16.8217 9.36597 17.0383 9.22331 17.1684 9.01642C17.3351 8.75158 17.6944 8.66613 17.9711 8.82574C18.2478 8.98543 18.3369 9.32967 18.1702 9.59466C17.8656 10.0789 17.358 10.413 16.7776 10.511Z" fill="#A1AEC8"/>
</svg>
