<svg width="40" height="40" viewBox="0 0 40 40" fill="none" xmlns="http://www.w3.org/2000/svg">
<path fill-rule="evenodd" clip-rule="evenodd" d="M37.6562 12.0833C38.9486 12.0833 40 11.0179 40 9.70833V3.375C40 2.06543 38.9486 1 37.6562 1H33.6198C33.1883 1 32.8385 1.35451 32.8385 1.79167C32.8385 2.22883 33.1883 2.58333 33.6198 2.58333H37.6562C38.087 2.58333 38.4375 2.93848 38.4375 3.375V9.70833C38.4375 10.1449 38.087 10.5 37.6562 10.5H2.34375C1.91297 10.5 1.5625 10.1449 1.5625 9.70833V3.375C1.5625 2.93848 1.91297 2.58333 2.34375 2.58333H27.3698C27.8012 2.58333 28.151 2.22883 28.151 1.79167C28.151 1.35451 27.8012 1 27.3698 1H2.34375C1.05141 1 0 2.06543 0 3.375V9.70833C0 11.0179 1.05141 12.0833 2.34375 12.0833H3.125V14.4583H2.34375C1.05141 14.4583 0 15.5238 0 16.8333V23.1667C0 24.4762 1.05141 25.5417 2.34375 25.5417H3.125V27.9167H2.34375C1.05141 27.9167 0 28.9821 0 30.2917V36.625C0 37.9346 1.05141 39 2.34375 39H37.6562C38.9486 39 40 37.9346 40 36.625V30.2917C40 28.9821 38.9486 27.9167 37.6562 27.9167H36.875V25.5417H37.6562C38.9486 25.5417 40 24.4762 40 23.1667V16.8333C40 15.5238 38.9486 14.4583 37.6562 14.4583H36.875V12.0833H37.6562ZM38.4375 30.2917V36.625C38.4375 37.0615 38.087 37.4167 37.6562 37.4167H2.34375C1.91297 37.4167 1.5625 37.0615 1.5625 36.625V30.2917C1.5625 29.8551 1.91297 29.5 2.34375 29.5H37.6562C38.087 29.5 38.4375 29.8551 38.4375 30.2917ZM4.6875 27.9167H35.3125V25.5417H4.6875V27.9167ZM38.4375 16.8333V23.1667C38.4375 23.6032 38.087 23.9583 37.6562 23.9583H2.34375C1.91297 23.9583 1.5625 23.6032 1.5625 23.1667V16.8333C1.5625 16.3968 1.91297 16.0417 2.34375 16.0417H37.6562C38.087 16.0417 38.4375 16.3968 38.4375 16.8333ZM4.6875 14.4583H35.3125V12.0833H4.6875V14.4583ZM31.4062 20C31.4062 18.6904 32.4577 17.625 33.75 17.625C35.0423 17.625 36.0938 18.6904 36.0938 20C36.0938 21.3096 35.0423 22.375 33.75 22.375C32.4577 22.375 31.4062 21.3096 31.4062 20ZM32.9688 20C32.9688 20.4365 33.3192 20.7917 33.75 20.7917C34.1808 20.7917 34.5312 20.4365 34.5312 20C34.5312 19.5635 34.1808 19.2083 33.75 19.2083C33.3192 19.2083 32.9688 19.5635 32.9688 20ZM9.375 17.625H6.25C4.95766 17.625 3.90625 18.6904 3.90625 20C3.90625 21.3096 4.95766 22.375 6.25 22.375H9.375C10.6673 22.375 11.7188 21.3096 11.7188 20C11.7188 18.6904 10.6673 17.625 9.375 17.625ZM9.375 20.7917H6.25C5.81922 20.7917 5.46875 20.4365 5.46875 20C5.46875 19.5635 5.81922 19.2083 6.25 19.2083H9.375C9.80578 19.2083 10.1562 19.5635 10.1562 20C10.1562 20.4365 9.80578 20.7917 9.375 20.7917ZM15.625 17.625H18.75C20.0423 17.625 21.0938 18.6904 21.0938 20C21.0938 21.3096 20.0423 22.375 18.75 22.375H15.625C14.3327 22.375 13.2812 21.3096 13.2812 20C13.2812 18.6904 14.3327 17.625 15.625 17.625ZM15.625 20.7917H18.75C19.1808 20.7917 19.5312 20.4365 19.5312 20C19.5312 19.5635 19.1808 19.2083 18.75 19.2083H15.625C15.1942 19.2083 14.8438 19.5635 14.8438 20C14.8438 20.4365 15.1942 20.7917 15.625 20.7917ZM33.75 8.91667C35.0423 8.91667 36.0938 7.85124 36.0938 6.54167C36.0938 5.23209 35.0423 4.16667 33.75 4.16667C32.4577 4.16667 31.4062 5.23209 31.4062 6.54167C31.4062 7.85124 32.4577 8.91667 33.75 8.91667ZM33.75 5.75C34.1808 5.75 34.5312 6.10514 34.5312 6.54167C34.5312 6.97819 34.1808 7.33333 33.75 7.33333C33.3192 7.33333 32.9688 6.97819 32.9688 6.54167C32.9688 6.10514 33.3192 5.75 33.75 5.75ZM3.90625 6.54167C3.90625 5.23209 4.95766 4.16667 6.25 4.16667H9.375C10.6673 4.16667 11.7188 5.23209 11.7188 6.54167C11.7188 7.85124 10.6673 8.91667 9.375 8.91667H6.25C4.95766 8.91667 3.90625 7.85124 3.90625 6.54167ZM9.375 7.33333C9.80578 7.33333 10.1562 6.97819 10.1562 6.54167C10.1562 6.10514 9.80578 5.75 9.375 5.75H6.25C5.81922 5.75 5.46875 6.10514 5.46875 6.54167C5.46875 6.97819 5.81922 7.33333 6.25 7.33333H9.375ZM15.625 4.16667C14.3327 4.16667 13.2812 5.23209 13.2812 6.54167C13.2812 7.85124 14.3327 8.91667 15.625 8.91667H18.75C20.0423 8.91667 21.0938 7.85124 21.0938 6.54167C21.0938 5.23209 20.0423 4.16667 18.75 4.16667H15.625ZM19.5312 6.54167C19.5312 6.97819 19.1808 7.33333 18.75 7.33333H15.625C15.1942 7.33333 14.8438 6.97819 14.8438 6.54167C14.8438 6.10514 15.1942 5.75 15.625 5.75H18.75C19.1808 5.75 19.5312 6.10514 19.5312 6.54167ZM31.4062 33.4583C31.4062 32.1488 32.4577 31.0833 33.75 31.0833C35.0423 31.0833 36.0938 32.1488 36.0938 33.4583C36.0938 34.7679 35.0423 35.8333 33.75 35.8333C32.4577 35.8333 31.4062 34.7679 31.4062 33.4583ZM32.9688 33.4583C32.9688 33.8949 33.3192 34.25 33.75 34.25C34.1808 34.25 34.5312 33.8949 34.5312 33.4583C34.5312 33.0218 34.1808 32.6667 33.75 32.6667C33.3192 32.6667 32.9688 33.0218 32.9688 33.4583ZM9.375 31.0833H6.25C4.95766 31.0833 3.90625 32.1488 3.90625 33.4583C3.90625 34.7679 4.95766 35.8333 6.25 35.8333H9.375C10.6673 35.8333 11.7188 34.7679 11.7188 33.4583C11.7188 32.1488 10.6673 31.0833 9.375 31.0833ZM9.375 34.25H6.25C5.81922 34.25 5.46875 33.8949 5.46875 33.4583C5.46875 33.0218 5.81922 32.6667 6.25 32.6667H9.375C9.80578 32.6667 10.1562 33.0218 10.1562 33.4583C10.1562 33.8949 9.80578 34.25 9.375 34.25ZM15.625 31.0833H18.75C20.0423 31.0833 21.0938 32.1488 21.0938 33.4583C21.0938 34.7679 20.0423 35.8333 18.75 35.8333H15.625C14.3327 35.8333 13.2812 34.7679 13.2812 33.4583C13.2812 32.1488 14.3327 31.0833 15.625 31.0833ZM15.625 34.25H18.75C19.1808 34.25 19.5312 33.8949 19.5312 33.4583C19.5312 33.0218 19.1808 32.6667 18.75 32.6667H15.625C15.1942 32.6667 14.8438 33.0218 14.8438 33.4583C14.8438 33.8949 15.1942 34.25 15.625 34.25ZM30.4948 2.58333C30.9262 2.58333 31.276 2.22889 31.276 1.79167C31.276 1.35444 30.9262 1 30.4948 1C30.0633 1 29.7135 1.35444 29.7135 1.79167C29.7135 2.22889 30.0633 2.58333 30.4948 2.58333Z" fill="#A1AEC8"/>
</svg>
