<svg width="40" height="40" viewBox="0 0 40 40" fill="none" xmlns="http://www.w3.org/2000/svg">
<path fill-rule="evenodd" clip-rule="evenodd" d="M20.717 4.29602C20.717 4.73055 20.3647 5.08281 19.9302 5.08281C19.4958 5.08281 19.1435 4.73055 19.1434 4.29602V0.786797C19.1434 0.352266 19.4957 0 19.9302 0C20.3647 0 20.717 0.352266 20.717 0.786797V4.29602ZM39.1625 27.0301L37.7726 25.6441C37.2781 25.1502 36.6191 24.8782 35.9169 24.8782C35.4679 24.8782 35.0369 24.9899 34.655 25.1992L32.0358 22.5831L32.1633 22.4557C33.2259 21.391 33.2255 19.6609 32.1633 18.5998C31.7837 18.2195 31.31 17.9659 30.7937 17.8592C30.8647 17.6138 30.9022 17.3568 30.9022 17.0938C30.9022 16.3629 30.6183 15.6776 30.1044 15.1658C29.7247 14.7855 29.2511 14.5319 28.7347 14.4252C28.8058 14.1798 28.8433 13.9228 28.8433 13.6597C28.8433 12.9288 28.5594 12.2435 28.0446 11.7309C27.6558 11.3427 27.1779 11.0969 26.6762 10.9923C26.9446 10.0667 26.7152 9.02539 25.9871 8.29602C25.381 7.6925 24.5586 7.43313 23.766 7.51719L18.5758 6.53477C17.7842 6.38461 16.7957 6.28531 16.1717 6.85445C16.1323 6.89039 16.0922 6.93172 16.0526 6.97773C15.0851 6.62508 13.9567 6.83508 13.1819 7.60898C12.6679 8.12234 12.3848 8.80734 12.3848 9.53781C12.3848 9.80094 12.4221 10.0579 12.4931 10.3034C11.9773 10.41 11.5043 10.6633 11.1259 11.0423C10.6109 11.5552 10.3269 12.2395 10.3264 12.9691C10.3262 13.2328 10.3636 13.4906 10.435 13.7367C9.91896 13.8431 9.44561 14.0959 9.06607 14.475C8.55107 14.9895 8.26748 15.6748 8.26748 16.4049C8.26748 16.9641 8.43443 17.4969 8.74381 17.9469C8.35318 18.0793 7.99537 18.2997 7.69576 18.599C6.63248 19.6609 6.63209 21.3911 7.69647 22.4573L7.82357 22.5839L5.20404 25.1987C4.23053 24.7403 3.03107 24.912 2.22771 25.7144L0.836934 27.1013C0.342246 27.5953 0.0699023 28.2544 0.0698242 28.957C0.0698242 29.6596 0.342246 30.3188 0.836934 30.8129L2.57264 32.5465C2.88006 32.8536 3.37826 32.8533 3.68529 32.5459C3.9924 32.2384 3.99209 31.7402 3.68467 31.4332L1.94896 29.6996C1.75193 29.5028 1.64342 29.2391 1.64342 28.957C1.64342 28.6751 1.75193 28.4114 1.9485 28.2151L3.33936 26.8281C3.68686 26.481 4.21873 26.4293 4.62264 26.6708C4.65107 26.7135 4.68396 26.7541 4.72162 26.7919C4.78904 26.8595 4.866 26.9112 4.94771 26.9491L12.9237 34.9134C12.9616 34.996 13.0137 35.0737 13.0815 35.1417C13.1476 35.2079 13.223 35.2591 13.303 35.2967C13.4717 35.4874 13.5649 35.731 13.5649 35.9909C13.5649 36.2729 13.4564 36.5366 13.2594 36.7334L11.8699 38.1212C11.4594 38.5299 10.7915 38.5298 10.3822 38.1224L8.64654 36.3866C8.33928 36.0793 7.84115 36.0793 7.53389 36.3866C7.22662 36.6938 7.22662 37.192 7.53389 37.4992L9.27084 39.2363C9.78209 39.7455 10.4535 39.9999 11.1252 39.9999C11.7971 39.9999 12.4693 39.7451 12.9812 39.2355L14.3715 37.8468C14.8662 37.3527 15.1386 36.6936 15.1386 35.9909C15.1386 35.4894 14.9991 35.0105 14.7398 34.5975L17.688 31.653L17.6974 31.6434C18.0349 31.2944 18.9749 31.3597 19.8839 31.4228L19.8842 31.4228C20.5301 31.4677 21.2503 31.5177 21.9539 31.4366L25.1823 34.6612C24.9732 35.0425 24.8615 35.473 24.8615 35.9212C24.8615 36.6232 25.134 37.2819 25.6287 37.776L27.019 39.1647C27.5134 39.6585 28.1724 39.9305 28.8746 39.9305C29.5767 39.9305 30.2357 39.6586 30.7301 39.1647L39.163 30.742C39.6577 30.248 39.9301 29.5889 39.9301 28.8863C39.9301 28.1837 39.6576 27.5246 39.1625 27.0301ZM18.2828 8.08086L21.6958 8.72688L19.6529 10.769C19.3369 10.6171 18.9038 10.3338 18.4287 9.8793C17.7783 9.25711 17.313 8.53875 17.2707 8.0907L17.2706 8.09L17.2705 8.08977C17.2675 8.05758 17.2667 8.03188 17.2671 8.01227C17.37 7.98727 17.6433 7.95953 18.2828 8.08086ZM15.7621 8.5832C15.3117 8.2782 14.6925 8.32414 14.2939 8.72234C14.0776 8.93844 13.9584 9.22805 13.9583 9.53781C13.9583 9.8475 14.0775 10.1371 14.2938 10.3531L17.8421 13.895L17.8425 13.8954L17.8426 13.8955C18.0601 14.1134 18.3501 14.2327 18.6605 14.2327C18.9708 14.2327 19.2609 14.1134 19.4774 13.8965C19.6945 13.6796 19.8137 13.39 19.8137 13.0802C19.8137 12.8398 19.7411 12.6119 19.6077 12.4207C18.6219 12.1807 17.6453 11.3075 17.3409 11.0162C16.9302 10.6233 16.0173 9.65336 15.7621 8.5832ZM12.2379 12.1557C12.4544 11.9389 12.7442 11.8195 13.054 11.8195C13.3643 11.8195 13.655 11.9391 13.8729 12.1568L16.7301 15.0083C17.18 15.4589 17.18 16.1922 16.7316 16.6413C16.514 16.858 16.2229 16.9774 15.912 16.9774C15.6012 16.9774 15.3101 16.858 15.0933 16.6422L15.0933 16.6421L12.9257 14.475L12.9205 14.4701L12.9152 14.4651L12.2371 13.7873C12.0195 13.5699 11.8997 13.2798 11.9 12.9702C11.9003 12.6617 12.0197 12.373 12.2379 12.1557ZM10.9959 15.2529C10.6851 15.2529 10.3947 15.372 10.1781 15.5884C9.96084 15.8054 9.84115 16.0955 9.84115 16.4048C9.84115 16.7141 9.96084 17.0041 10.1782 17.2213L11.5569 18.5983L11.5574 18.5988L12.3456 19.3861C12.5625 19.602 12.8535 19.7215 13.1642 19.7215C13.4744 19.7215 13.7645 19.6023 13.9811 19.3861C14.1987 19.1693 14.3182 18.88 14.3182 18.5707C14.3182 18.2613 14.1987 17.972 13.9819 17.7561L11.8077 15.5829C11.592 15.3703 11.3041 15.2529 10.9959 15.2529ZM8.80779 19.7123C9.02537 19.4949 9.31615 19.3752 9.62654 19.3752C9.93686 19.3752 10.2276 19.4948 10.4451 19.712L11.2344 20.5004C11.4512 20.7163 11.5706 21.0056 11.5706 21.315C11.5706 21.6244 11.4512 21.9136 11.2327 22.1313C11.0162 22.348 10.7262 22.4675 10.4158 22.4675C10.1054 22.4675 9.81537 22.3481 9.59732 22.1297L9.4985 22.0312L9.4949 22.0273L9.49037 22.0232L8.80857 21.3441C8.35865 20.8932 8.35826 20.1613 8.80779 19.7123ZM23.729 28.6536C24.0364 28.3466 24.5346 28.3468 24.8417 28.6543C25.1488 28.9617 25.1485 29.4599 24.8409 29.7669L24.1413 30.4656C23.9787 30.6282 23.8055 30.7651 23.6245 30.8815L26.2209 33.4748L33.4674 26.2371L30.9223 23.695L30.3913 24.2254C30.2377 24.3787 30.0365 24.4555 29.8353 24.4555C29.6338 24.4555 29.4322 24.3785 29.2786 24.2247C28.9715 23.9173 28.9719 23.4191 29.2793 23.112L30.3649 22.0277L30.3656 22.0269L30.3664 22.0262L31.0504 21.343C31.4994 20.8931 31.4998 20.1611 31.0504 19.7121C30.8331 19.4945 30.543 19.3751 30.2326 19.3751C29.9223 19.3751 29.6322 19.4945 29.4158 19.7113C29.4137 19.7134 29.4115 19.7153 29.4093 19.7172L29.404 19.722L28.7312 20.395C28.5776 20.5487 28.3762 20.6255 28.1748 20.6255C27.9735 20.6255 27.7722 20.5488 27.6186 20.3952C27.3113 20.088 27.3112 19.5899 27.6184 19.2826L28.9911 17.9094C29.2092 17.6922 29.3286 17.4029 29.3286 17.0936C29.3286 16.7842 29.2092 16.4949 28.9923 16.2789C28.7743 16.0605 28.4841 15.9411 28.1737 15.9411C27.8634 15.9411 27.5733 16.0605 27.3569 16.2773L26.5648 17.0662C26.2569 17.3727 25.7588 17.3718 25.4522 17.0639C25.1455 16.7561 25.1465 16.2579 25.4544 15.9512L26.2429 15.166L26.2431 15.1657L26.9316 14.4758C27.1502 14.2581 27.2697 13.9688 27.2697 13.6595C27.2697 13.3502 27.1502 13.0609 26.9333 12.8449C26.4826 12.3948 25.7517 12.3939 25.3005 12.8409L25.1966 12.9445L25.1962 12.9449L24.5088 13.6313C24.2015 13.9384 23.7033 13.9381 23.3962 13.6306C23.089 13.3232 23.0894 12.825 23.3969 12.518L24.1854 11.7308L24.1923 11.7242L24.8769 11.0424C25.3252 10.5934 25.3252 9.86008 24.8753 9.40938C24.6097 9.14484 24.2449 9.03766 23.8976 9.08555C23.8747 9.09008 23.8515 9.09383 23.8281 9.09633C23.6116 9.13953 23.4051 9.24422 23.2376 9.41102L20.9897 11.658C21.2487 12.081 21.3876 12.5694 21.3876 13.0802C21.3876 13.8107 21.1044 14.4957 20.5905 15.0091C20.0776 15.5229 19.392 15.8062 18.6608 15.8063L18.6491 15.8061L18.6397 15.8059C18.6448 16.5111 18.3797 17.2178 17.8438 17.7546C17.3276 18.2688 16.6421 18.551 15.9122 18.551L15.9018 18.5508L15.8915 18.5505L15.8916 18.5561C15.8917 18.561 15.8919 18.5659 15.8919 18.5709C15.8919 19.3017 15.6079 19.987 15.0924 20.5005C14.5796 21.0127 13.8945 21.2952 13.1644 21.2952C13.1576 21.2952 13.1508 21.2948 13.144 21.2948L13.1442 21.3049L13.1444 21.3151C13.1444 22.046 12.8604 22.7313 12.3449 23.2447C11.8328 23.7577 11.1472 24.0412 10.416 24.0412C9.9042 24.0412 9.41506 23.9019 8.99115 23.642L6.42647 26.2021L13.6736 33.4386L16.5716 30.5441C17.4186 29.6745 18.7274 29.7653 19.9931 29.8533L19.9938 29.8533C21.1591 29.9342 22.364 30.0178 23.029 29.3527L23.729 28.6536ZM38.0509 29.6287L29.618 38.0513C29.4208 38.2484 29.1567 38.3569 28.8745 38.3569C28.5923 38.3569 28.3283 38.2484 28.1309 38.0513L26.7405 36.6626C26.5435 36.4659 26.435 36.2026 26.435 35.9212C26.435 35.64 26.5435 35.3767 26.7405 35.1799L35.1734 26.7573C35.3708 26.5602 35.6347 26.4516 35.917 26.4516C36.1992 26.4516 36.4633 26.5602 36.6611 26.7577L38.051 28.1438C38.248 28.3405 38.3565 28.6041 38.3565 28.8862C38.3565 29.1683 38.2479 29.432 38.0509 29.6287ZM9.48264 4.41953C9.63623 4.57281 9.83732 4.64937 10.0384 4.64937C10.24 4.64937 10.4416 4.57234 10.5953 4.41836C10.9022 4.11078 10.9018 3.61266 10.5942 3.3057L7.72717 0.444375C7.41967 0.137422 6.92146 0.137812 6.61451 0.445469C6.30756 0.753047 6.30803 1.25117 6.61561 1.55813L9.48264 4.41953ZM30.378 4.4193C30.2244 4.57266 30.0232 4.64937 29.822 4.64937C29.6205 4.64937 29.419 4.5725 29.2654 4.41867C28.9583 4.11125 28.9586 3.61305 29.266 3.30602L32.1308 0.444609C32.4383 0.1375 32.9365 0.137813 33.2435 0.445234C33.5506 0.752656 33.5503 1.25086 33.2429 1.55789L30.378 4.4193ZM4.90771 33.8441C4.60311 34.1539 4.60732 34.6521 4.91725 34.9567L4.91951 34.9589C5.0724 35.1092 5.27092 35.1841 5.46936 35.1841C5.67303 35.1841 5.8767 35.1052 6.031 34.9483C6.33561 34.6384 6.33021 34.1391 6.02037 33.8345C5.71061 33.5299 5.21248 33.5342 4.90771 33.8441ZM27.1212 27.4362C27.0072 27.4936 26.8858 27.5209 26.7661 27.5209C26.4781 27.5209 26.2003 27.3631 26.0622 27.0891C25.8665 26.7011 26.0202 26.2291 26.4082 26.0334L26.4126 26.0312C26.8004 25.8355 27.2737 25.9914 27.4694 26.3794C27.665 26.7673 27.5091 27.2405 27.1212 27.4362Z" fill="#A1AEC8"/>
</svg>
