<svg width="24" height="24" viewBox="0 0 24 24" fill="none" xmlns="http://www.w3.org/2000/svg">
<path d="M11.5953 6.3125L11.9937 6.81013L12.3821 6.30462C12.8229 5.7308 13.3035 5.28529 13.8754 4.98083C14.4451 4.6776 15.1322 4.5 16.0077 4.5C18.6414 4.5 21.2061 6.48185 21.4735 9.04844C21.4745 9.0597 21.4758 9.07251 21.4772 9.08687C21.4995 9.31078 21.5593 9.91022 21.312 10.871C20.9359 12.3283 19.7121 13.8186 18.3511 14.9486L18.3511 14.9486L18.3464 14.9526L12.0135 20.3434L5.68049 14.9526L5.68052 14.9526L5.67565 14.9485C4.31481 13.8195 3.09084 12.3282 2.71484 10.8707C2.47748 9.94831 2.49588 9.35698 2.50419 9.09031C2.50486 9.0688 2.50546 9.0494 2.50586 9.03211C2.79831 6.47767 5.38476 4.50457 8.01964 4.5C8.87959 4.50006 9.53731 4.67269 10.0881 4.97169C10.6435 5.27318 11.1206 5.7196 11.5953 6.3125Z" stroke="#A1AEC8"/>
</svg>
